<svg xmlns="http://www.w3.org/2000/svg" viewBox="0 0 77.25 90.12"><defs><style>.cls-1{fill:#eda600;}.cls-2{fill:#feb200;}.cls-3{fill:#eca500;}.cls-4{fill:#e49500;}.cls-5{fill:#e69900;}.cls-6{fill:#e89d00;}.cls-7{fill:#eba200;}.cls-8{fill:#e9a000;}.cls-9{fill:#fec928;}.cls-10{fill:#feb301;}.cls-11{fill:#feb505;}.cls-12{fill:#fec825;}.cls-13{fill:#fefefe;}.cls-14{fill:#fec724;}.cls-15{fill:#fec017;}.cls-16{fill:#fec31d;}.cls-17{fill:#fec41f;}.cls-18{fill:#feba0d;}.cls-19{fill:#fec018;}.cls-20{fill:#febf16;}.cls-21{fill:#feb607;}.cls-22{fill:#fec21b;}.cls-23{fill:#febe14;}.cls-24{fill:#fec521;}.cls-25{fill:#fec11a;}.cls-26{fill:#feb80a;}.cls-27{fill:#fec623;}.cls-28{fill:#febc11;}.cls-29{fill:#fec119;}.cls-30{fill:#feb404;}.cls-31{fill:#fec31e;}.cls-32{fill:#febc10;}.cls-33{fill:#fec21c;}.cls-34{fill:#feb504;}.cls-35{fill:#febe15;}.cls-36{fill:#febd13;}.cls-37{fill:#feb708;}.cls-38{fill:#fec622;}.cls-39{fill:#febb0e;}.cls-40{fill:#fec41e;}.cls-41{fill:#f6b006;}.cls-42{fill:#feba0e;}.cls-43{fill:#feb90c;}.cls-44{fill:#feb80b;}</style></defs><title>Capa 1icono</title><g id="Capa_2" data-name="Capa 2"><g id="Capa_1-2" data-name="Capa 1"><path class="cls-1" d="M45.08,8.38c.51,0,.34-.43.38-.7a7,7,0,0,1,2.27-4.49,2.9,2.9,0,0,1,1.72-.9,5,5,0,0,0,2.9-1.4,4.21,4.21,0,0,1,5.77.55c4.81,5.41,10.06,10.35,15.34,15.27a11.74,11.74,0,0,1,3.79,9.06,150.63,150.63,0,0,1-2.32,27.31,25.94,25.94,0,0,1-6.84,12.77,58.84,58.84,0,0,1-25.62,16,30.84,30.84,0,0,0-12.36,7.5A2.24,2.24,0,0,1,27.8,90c-.42-.1-.86-.13-1.29-.19-.23-.46.16-.68.4-.92a46.93,46.93,0,0,1,4.71-4.2c.4-.31.82-.59,1.2-.93a4.43,4.43,0,0,1,.93-.62c.44-.26.85-.56,1.3-.81.86-.56,1.82-1,2.71-1.44s2-.76,3-1.12c.74-.23,1.49-.46,2.21-.75s1.31-.43,1.92-.74c1.51-.56,3-1.17,4.44-1.86a60.67,60.67,0,0,0,5.95-3.19c1.36-.88,2.72-1.76,4-2.77a33.79,33.79,0,0,0,4-3.44,37.46,37.46,0,0,0,5.57-6,14,14,0,0,0,1.26-2,13.28,13.28,0,0,0,1.75-4.14c.22-1.11.67-2.16.79-3.29.28-1.25.48-2.5.66-3.76s.37-2.35.41-3.55a1.47,1.47,0,0,1,.05-.29,2.81,2.81,0,0,0,.13-1,3.35,3.35,0,0,1,.07-.71,2.72,2.72,0,0,0,.11-1,3.23,3.23,0,0,1,0-.44,6.18,6.18,0,0,1,.07-1,5.18,5.18,0,0,0,.12-1.52,4.58,4.58,0,0,1,0-.64c.27-1.09,0-2.21.17-3.3a19.38,19.38,0,0,0,.13-3.49c.07-.59,0-1.19.08-1.77.4-4,.15-7.73-3.06-10.67-.73-.67-1.39-1.42-2.19-2-2.82-2.94-5.92-5.59-8.73-8.54-1.48-1.51-2.79-3.18-4.28-4.68a2,2,0,0,0-2.22-.5c-.51.17-.76.44-.29.94s.68,1,1,1.44c.47.72.84,1.5,1.3,2.22a5.62,5.62,0,0,0,.93,1.3,8.45,8.45,0,0,0,.75,1,6.38,6.38,0,0,0,.78.94,11.19,11.19,0,0,0,1.15,1.33,70.44,70.44,0,0,0,5.41,5.66,18.52,18.52,0,0,1,4,5.24,2.08,2.08,0,0,1,.22.38,33.77,33.77,0,0,1,1.9,7,82.15,82.15,0,0,1,1.7,11.36c-.21,1.07,0,2.22-.58,3.24a.91.91,0,0,1-.21.23.45.45,0,0,1-.45,0c-.3-.39-.14-.88-.32-1.3a6.52,6.52,0,0,1-.27-1.16c-.15-.62-.14-1.27-.3-1.89-.2-1-.34-2-.61-2.94-.63-2.91-1.13-5.85-1.91-8.74-.32-1.17-.77-2.29-1.07-3.47a7.58,7.58,0,0,0-2-3.59c-2.29-2.82-5-5.24-7.46-7.91a4.41,4.41,0,0,1-.84-1c-.62-1-1.51-1.87-2.2-2.85-.55-.73-1-1.5-1.52-2.27A15,15,0,0,0,52,5.59c-1.08-1.31-2.33-1.24-3.29.19a3.23,3.23,0,0,0-.29.59A4.94,4.94,0,0,0,48,8.06v.85c0,.24,0,.49,0,.74a.76.76,0,0,0,.83.88,3.84,3.84,0,0,1,2.23.8,4.13,4.13,0,0,1,1.38,2,58.27,58.27,0,0,0,5.86,10.85A42.12,42.12,0,0,1,65,43.62,31.56,31.56,0,0,1,65,47a2,2,0,0,1-.12.64c-.11.33-.24.7-.64.72s-.58-.39-.67-.76C63,45,62.41,42.47,61.72,39.94A62.1,62.1,0,0,0,58,29.24a54.67,54.67,0,0,0-4.08-6.72A44.82,44.82,0,0,1,50,14.75c-.28-.68-.53-1.37-1.42-1.44a2.16,2.16,0,0,0-2,1.11A2.94,2.94,0,0,0,46.08,16a22.09,22.09,0,0,0,2.33,11.43c.71,1.35,1.42,2.7,2.1,4.07,1.37,2.74,1.64,5.75,2.1,8.71A124.23,124.23,0,0,0,55,53.75c.1.39.25.83-.18,1.11s-.82,0-1.15-.32a6.18,6.18,0,0,1-1.77-2.93c-.2-.67-.5-.92-1.2-.83-7,.88-13.52,2.95-19,7.67a31.75,31.75,0,0,0-4.23,4.6,8.24,8.24,0,0,0-.64.82c-.14.19-.27.4-.41.59l-.38.57c-.08.13-.16.26-.23.4a4.94,4.94,0,0,1-.3.49,3,3,0,0,0-.24.38c-.06.13-.13.25-.19.38s-.13.26-.21.39a2.75,2.75,0,0,1-.19.28,3.74,3.74,0,0,1-.27.42c-.22.15-.41.43-.69.1a2.69,2.69,0,0,1-.09-1.29,12.79,12.79,0,0,1,2-4.36,31.12,31.12,0,0,1,4-5,7.06,7.06,0,0,0,1-.93,8,8,0,0,1,.92-.83,6.74,6.74,0,0,1,1.13-.93,5.51,5.51,0,0,0,.94-.73,4.37,4.37,0,0,1,.72-.45c.24-.13.44-.33.68-.47a7.94,7.94,0,0,1,.75-.42c.31-.14.59-.33.92-.45.55-.21,1-.52,1.58-.78A38.2,38.2,0,0,1,50.68,48c.65,0,.46-.35.35-.7a31.81,31.81,0,0,1-.74-4c-.25-1.09-.24-1.12-1.4-1.15a1.94,1.94,0,0,1-1.16-.2c-.14-.45.24-.4.48-.46a2.3,2.3,0,0,1,.83,0c.78.07,1-.31.83-1,0-.24-.08-.49-.12-.73a25.05,25.05,0,0,0-4-11.45c-.49-1.25-.94-2.53-1.53-3.75a31.19,31.19,0,0,1-.85-9.08,5.61,5.61,0,0,1,1.14-2.81c.32-.5,1-.79.86-1.57S45.2,9.27,45.08,8.38Z"/><path class="cls-2" d="M31.76,84.85c-1.63,1.37-3.24,2.75-4.73,4.26-.21.22-.5.39-.52.74A47.84,47.84,0,0,1,3.58,79.5a19.82,19.82,0,0,1-2.46-2.3,1,1,0,0,1,1.11-.65A45.58,45.58,0,0,0,12.67,82,46.48,46.48,0,0,0,24,84.43c2.19.21,4.36.09,6.54.16C30.94,84.61,31.4,84.5,31.76,84.85Z"/><path class="cls-3" d="M2.13,76.6l-1,.6c-1.48-1.46-1.48-1.46-.06-2.83C3.5,72,5.89,69.59,8.1,67a9.42,9.42,0,0,0,2.11-4.19,68.81,68.81,0,0,1,6.14-17.66c.29-.55.63-1.07.95-1.6.6.48,1.39.73,1.79,1.45a1.82,1.82,0,0,1-.3.88,58,58,0,0,0-5,12.79c-.64,2.19-1,4.44-1.71,6.61-.22.39-.41.8-.63,1.19l-.92,1.2a9.14,9.14,0,0,1-.94,1.12c-.15.18-.27.39-.43.57s-.27.3-.41.44c-.29.3-.6.58-.86.9a8,8,0,0,1-1,1.13c-.31.29-.6.59-.9.88-.14.14-.29.28-.43.43s-.4.4-.59.61a9,9,0,0,1-.89,1.07l-.89.89-.44.42C2.59,76.3,2.43,76.55,2.13,76.6Z"/><path class="cls-4" d="M45.08,8.38c.15.18.42.3.36.59-.15.73.27,1.46,0,2.19-1-.3-1.9-.94-3-.59a2.54,2.54,0,0,0-2.21,2c-.3,1-.63,2-1,3s-.74,2-1.13,3a13.54,13.54,0,0,1-1.48,2.82c-.92.07-1.41-.57-1.93-1.17,1.42-3,2.33-6.21,3.51-9.31A4.91,4.91,0,0,1,43.54,8,3.93,3.93,0,0,1,45.08,8.38Z"/><path class="cls-5" d="M34.74,20.16c.71.24,1.13,1,1.89,1.12.16.38-.08.66-.24.95a39.24,39.24,0,0,1-3,4.56c-.48.53-.8,1.21-1.51,1.51-.69-.31-1.52-.47-1.66-1.43A45.7,45.7,0,0,0,34.74,20.16Z"/><path class="cls-6" d="M30.24,26.87c.38.68,1.15.89,1.7,1.35.12.43-.27.59-.45.87a11.57,11.57,0,0,1-.9,1.07c-.15.15-.3.3-.44.46a11.37,11.37,0,0,1-1.06,1.24,3,3,0,0,0-.62.75,15.83,15.83,0,0,0-1.08,1.23.88.88,0,0,1-.58.35c-1.17-.29-1.62-.7-1.62-1.47C26.79,30.7,28.5,28.77,30.24,26.87Z"/><path class="cls-7" d="M19,44.91c-.61-.39-1.37-.61-1.7-1.36A40.57,40.57,0,0,1,21.06,38c.75.17,1.24.78,1.9,1.1.12.32-.11.51-.25.73q-1.52,2-2.84,4.22C19.65,44.36,19.48,44.79,19,44.91Z"/><path class="cls-8" d="M22.93,39.1c-.83-.05-1.28-.7-1.87-1.15a46.3,46.3,0,0,1,4.13-5.23c.26.83,1,1.06,1.69,1.32.07.54-.41.8-.63,1.2a13,13,0,0,0-1.12,1.34c-.4.47-.76,1-1.13,1.48A10.51,10.51,0,0,1,22.93,39.1Z"/><path class="cls-9" d="M27.25,63.09A20.63,20.63,0,0,1,31,58.78a29.32,29.32,0,0,1,7.89-5.12A38.31,38.31,0,0,1,49.4,50.72c.16,0,.31,0,.46-.06,1.77-.37,1.86-.35,2.45,1.27a6.49,6.49,0,0,0,1.74,2.62c.21.19.42.4.73.2s.13-.44.06-.67a58.47,58.47,0,0,1-1.37-6.57c-.42-2.79-.86-5.57-1.27-8.37a24.88,24.88,0,0,0-2.77-9.22,24.83,24.83,0,0,1-3.1-7.39,27,27,0,0,1-.5-6.77A3,3,0,0,1,48.23,13a1.59,1.59,0,0,1,1.85,1.09c1.54,4.68,4.37,8.66,6.92,12.79a40.85,40.85,0,0,1,4,9.63c1.11,3.63,2,7.32,2.8,11,.06.27,0,.63.39.64s.39-.37.44-.62a13.83,13.83,0,0,0,.08-4,47.07,47.07,0,0,0-1.52-8.14,45.52,45.52,0,0,0-4.62-10.29c-1.45-2.48-3.25-4.74-4.47-7.35-.62-1.32-1.16-2.68-1.76-4a5.23,5.23,0,0,0-1.46-2.24c.32-.67.8-.26,1.16-.11A23.66,23.66,0,0,1,56.91,14,29.53,29.53,0,0,1,68.1,28.42a28.57,28.57,0,0,1,1.62,9.45,27.8,27.8,0,0,1-5,16.4,28.81,28.81,0,0,1-36.6,9.89C27.71,64,27,63.88,27.25,63.09Z"/><path class="cls-9" d="M19,44.91c1.19-1.75,2.21-3.62,3.57-5.25.84-.16.7.55.77,1a47.52,47.52,0,0,0,1.07,4.84A36.64,36.64,0,0,0,29.17,55.8c.31.44.78.84.71,1.47a30.47,30.47,0,0,0-5.57,8,12.58,12.58,0,0,0-.43,1.22c-.22.8-.3,1.63-.54,2.42a3.66,3.66,0,0,1-.25.68.53.53,0,0,1-.21.21,2.21,2.21,0,0,1-1.37,0,31,31,0,0,1-8.9-3.46c-.37-.2-.93-.33-.73-1,.79-3.35,1.58-6.71,2.64-10a47.41,47.41,0,0,1,3.85-9.19C18.6,45.75,18.79,45.33,19,44.91Z"/><path class="cls-10" d="M43.57,15.29a29.37,29.37,0,0,0,.75,8.46,1.87,1.87,0,0,1,0,.91c.34.44.16.9,0,1.35A38.51,38.51,0,0,1,40,36.12a36.88,36.88,0,0,1-3,4.43,2.32,2.32,0,0,1-2.17,1.17,4.43,4.43,0,0,1-.6-1.86,25,25,0,0,1,5.19-21.25A24.37,24.37,0,0,1,42.11,16C42.51,15.61,42.91,15.14,43.57,15.29Z"/><path class="cls-11" d="M50.88,48.28a38.8,38.8,0,0,0-11.19,2.6l-1.37.59a14.06,14.06,0,0,1-2.55-3.53,21.26,21.26,0,0,1-1.72-3.72c-.12-.32-.3-.64,0-1a10,10,0,0,1,2.8-.65,25.8,25.8,0,0,1,3-.4,2.82,2.82,0,0,0,1-.1,4.78,4.78,0,0,1,.75-.08,3.15,3.15,0,0,0,1.18-.12,4.73,4.73,0,0,1,.93-.08,5.11,5.11,0,0,0,1.74-.13c.73,0,1.48-.27,2.15.21.84.06,1.84-.32,2.46.16s.42,1.56.59,2.37c.21,1,.35,2.06.52,3.1C51.52,48,51.23,48.15,50.88,48.28Z"/><path class="cls-12" d="M27.25,63.09c0,.53.48.62.83.78a31,31,0,0,0,10,2.82A27.11,27.11,0,0,0,53.53,63.8a28.56,28.56,0,0,0,14.25-16,28.1,28.1,0,0,0,1.63-12.3,27.61,27.61,0,0,0-6.24-15.33A29.77,29.77,0,0,0,54,12.52c-.77-.4-1.6-.69-2.4-1-.23-.1-.47-.24-.67,0a3.62,3.62,0,0,0-2-.75c-1.2,0-1.22-.07-1.22-1.31,0-.18,0-.37,0-.56a1.06,1.06,0,0,1,.82,0,28.12,28.12,0,0,1,8.74,3.93c2.14,2.15,4.06,4.52,6.36,6.52a16.8,16.8,0,0,1,1.89,2.29,38.24,38.24,0,0,1,2.06,3.56A78.25,78.25,0,0,1,69.88,34c.26,1.21.46,2.42.69,3.63a30,30,0,0,1-7.11,19.67A28.62,28.62,0,0,1,44.1,67.59,29,29,0,0,1,28,65c-.51-.26-1.26-.3-1.34-1.11C26.85,63.57,26.93,63.24,27.25,63.09Z"/><path class="cls-4" d="M40,42.47a52.37,52.37,0,0,0-6,.94c-.38.47-.95.41-1.45.57s-.82.33-1.22,0a.66.66,0,0,1-.06-.27,1.13,1.13,0,0,1,.37-.56,2.09,2.09,0,0,1,.64-.46c.39-.17.74-.44,1.13-.62s.93-.6,1.52-.34c2-.57,2.75-2.37,3.73-3.86a40.54,40.54,0,0,0,5-10.28,10,10,0,0,0,.62-2.91c.09,0,.24,0,.26.09a26.71,26.71,0,0,1,1.25,3.48c.27.4.08.78-.06,1.16A43.46,43.46,0,0,1,41,39c-.15.22-.38.42-.34.76a8,8,0,0,0,2.13-.2c2-.31,3.93,0,5.89-.29a1.75,1.75,0,0,1,1.25.3c.35.52.15,1.14.33,1.7s-.3.4-.59.44c-.65.08-1.34-.21-2,.18H45.45c-.55.24-1.15-.06-1.69.19h-.94c-.35.23-.78-.05-1.13.18H41C40.66,42.5,40.29,42.25,40,42.47Z"/><path class="cls-13" d="M49.92,39.59a52.81,52.81,0,0,0-9.88.63c0-.43.31-.65.49-.93a41.15,41.15,0,0,0,5.3-11.06,22.33,22.33,0,0,1,3.53,7.69A19,19,0,0,1,49.92,39.59Z"/><path class="cls-14" d="M26.69,63.85c1.11,1,2.59,1.32,3.92,1.88,4.31,1.84,8.89,2,13.42,1.62A27.46,27.46,0,0,0,59.3,61a29.16,29.16,0,0,0,8.21-10.51A27.66,27.66,0,0,0,70,41.15a11.62,11.62,0,0,1,.53-3.55,13.27,13.27,0,0,1,.57,3,30.54,30.54,0,0,1-17,24.89,31,31,0,0,1-11.22,3,30.57,30.57,0,0,1-14.75-2.61c-.7-.31-1.7-.37-1.86-1.45Z"/><path class="cls-15" d="M23.13,68.91a6.73,6.73,0,0,1,.75-2.44V68a39.46,39.46,0,0,0,7.7,3.16A33.44,33.44,0,0,0,55.67,69,34.29,34.29,0,0,0,70.15,55.76,21.56,21.56,0,0,0,72,52.37c.15-.35.22-.93.88-.71A17.77,17.77,0,0,1,72.07,55,36.24,36.24,0,0,1,50.59,72.29a34.26,34.26,0,0,1-12.32,1.33,33.45,33.45,0,0,1-13.34-3.73A8.51,8.51,0,0,1,23.13,68.91Z"/><path class="cls-16" d="M59.69,11.91a3.76,3.76,0,0,1-1.13-1.31c.42-.33.78-.08,1.11.15a34.07,34.07,0,0,1,9.87,10.72A33.13,33.13,0,0,1,74,35.56a31.88,31.88,0,0,1-1.26,11.76A33.32,33.32,0,0,1,56.94,67.1a34.77,34.77,0,0,1-12.66,4.07A31.3,31.3,0,0,1,31.7,70.05a32.89,32.89,0,0,1-5.26-2A4.33,4.33,0,0,1,24.81,67a.4.4,0,0,1,.19-.37c.44-.29.79,0,1.12.2a30.87,30.87,0,0,0,12.06,3.45,31.33,31.33,0,0,0,11.74-1.25A33.09,33.09,0,0,0,61,63.24,31.85,31.85,0,0,0,71.27,48.67a11.43,11.43,0,0,0,1-4c.51-1,.33-2.13.56-3.18.39-.72,0-1.48.11-2.21a24.83,24.83,0,0,0-.57-8A28.9,28.9,0,0,0,69.25,23l-.18-.2a11.16,11.16,0,0,0-2-3.52A28.07,28.07,0,0,0,59.69,11.91Z"/><path class="cls-11" d="M34.94,41.71l-1.49.57a8.33,8.33,0,0,1-1-3.74A27.65,27.65,0,0,1,33,28.09c.11-.46.24-.91.31-1.37a51.36,51.36,0,0,0,3.37-5.44L38,18.47a57.32,57.32,0,0,1,5.54-5.37c.33-.3.65-.72,1.2-.44a6.29,6.29,0,0,0-1.12,2.63,16.14,16.14,0,0,0-4.76,4.55,23.33,23.33,0,0,0-4.37,9.9,24.64,24.64,0,0,0,.41,11.42A5.25,5.25,0,0,1,34.94,41.71Z"/><path class="cls-17" d="M71.7,43.59c.35.4.12.87.19,1.31.26.4,0,.79,0,1.17A32.12,32.12,0,0,1,44.89,69.93a31.39,31.39,0,0,1-18.7-3.26c-.33-.16-.81-.23-.81-.76l.37-.57c.28-.12.48.06.7.17A30.78,30.78,0,0,0,38.9,68.89a29.87,29.87,0,0,0,16.4-3.52,30.62,30.62,0,0,0,15.6-20.3C71,44.52,71,43.84,71.7,43.59Z"/><path class="cls-18" d="M55.38,73.41a33.81,33.81,0,0,1-6,3.19A38,38,0,0,1,25,74.26a10.93,10.93,0,0,1-2.11-1,1.44,1.44,0,0,1-.2-1,.94.94,0,0,1,.2-.62c.47-.23.85.06,1.23.24a39.18,39.18,0,0,0,11.78,3.52A37.07,37.07,0,0,0,52,74c.8-.25,1.59-.55,2.4-.78C54.72,73.17,55.11,73,55.38,73.41Z"/><path class="cls-19" d="M72.83,51.66c-.37,0-.46.3-.56.55a33.06,33.06,0,0,1-8.9,12,32.63,32.63,0,0,1-12.72,7,34.76,34.76,0,0,1-10.18,1.5,35,35,0,0,1-12.78-2.62c-1-.41-2-.91-3-1.38a1.53,1.53,0,0,1-.84-.7l.56-.38c1.22.4,2.29,1.12,3.48,1.6a33.19,33.19,0,0,0,9.41,2.32A33.14,33.14,0,0,0,64,62.29,33.93,33.93,0,0,0,72.4,49.56c.23-.62.29-1.44,1.16-1.65A22.8,22.8,0,0,1,72.83,51.66Z"/><path class="cls-20" d="M56.13,7.41a9.2,9.2,0,0,1-1.31-2.25c.16-.54.52-.24.78-.15a17.29,17.29,0,0,1,3.21,1.63c.67.38,1.36.74,2,1.15a3.27,3.27,0,0,1,.37.28l7.58,7.38c.24.24.45.51.68.77A38.42,38.42,0,0,1,74.83,26a5.77,5.77,0,0,1,0,2.95v1.87c-.73,0-.63-.68-.74-1.11a34,34,0,0,0-3.94-9.45A34.44,34.44,0,0,0,57.09,7.79,4.92,4.92,0,0,0,56.13,7.41Z"/><path class="cls-21" d="M3.07,75.66A2.91,2.91,0,0,1,4,74.72a25.22,25.22,0,0,1,3.57,2,42,42,0,0,0,16.54,5.06c1.53.13,3.06.14,4.58.16a3.3,3.3,0,0,0,1.46-.26,37.64,37.64,0,0,0,4.37.46c.25,0,.59,0,.6.43l-1.31.75a41.15,41.15,0,0,1-6,.39,42.1,42.1,0,0,1-7.16-.59A43.58,43.58,0,0,1,4.08,76.7C3.67,76.43,3.19,76.21,3.07,75.66Z"/><path class="cls-22" d="M24.81,67a52.84,52.84,0,0,0,5.13,2.21A39.47,39.47,0,0,0,38.2,71,31.34,31.34,0,0,0,51,69.45,31.93,31.93,0,0,0,61.19,64a33.57,33.57,0,0,0,8.28-9.64A32.55,32.55,0,0,0,73.21,44a33.54,33.54,0,0,0,.56-6.49,32.32,32.32,0,0,0-2.45-11.89,31.69,31.69,0,0,0-6.24-9.79,40.09,40.09,0,0,0-5.56-4.94,1.37,1.37,0,0,0-1-.31,1.8,1.8,0,0,1-.75-.94c.51-.37.89,0,1.27.26a34.31,34.31,0,0,1,8.79,8.33A33.36,33.36,0,0,1,74,33.09a3,3,0,0,0,.13,1,3.68,3.68,0,0,1,.08.58,4.68,4.68,0,0,0,.12,1.49,4.7,4.7,0,0,1,.06,1.24,5.08,5.08,0,0,0-.06,1.1v.32c.09.72-.28,1.45,0,2.17v.38c-.19.24,0,.55-.16.8-.27.71-.14,1.49-.39,2.2A32.43,32.43,0,0,1,67,59,34,34,0,0,1,51.24,70.05,25.84,25.84,0,0,1,45,71.41a3.34,3.34,0,0,0-1.17.12,3.4,3.4,0,0,1-.63.08h-5a2.29,2.29,0,0,1-.64-.08,4.12,4.12,0,0,0-1.21-.12,30.35,30.35,0,0,1-11.21-3.48c-.28-.14-.68-.24-.6-.71Z"/><path class="cls-23" d="M23.13,68.91a2.8,2.8,0,0,1,1.47.56,33.53,33.53,0,0,0,11.76,3.71,35.42,35.42,0,0,0,23.91-5.63A34.87,34.87,0,0,0,71.21,56a2.32,2.32,0,0,1,.86-1,10.35,10.35,0,0,1-1.87,4.12,34.39,34.39,0,0,1-8,8.1A35.72,35.72,0,0,1,45,74.05,36.26,36.26,0,0,1,23.5,70a1.1,1.1,0,0,1-.55-.49Z"/><path class="cls-23" d="M23,69.47c2.1.87,4.08,2,6.26,2.69A36.64,36.64,0,0,0,39.8,74a35,35,0,0,0,12.7-1.93A39.45,39.45,0,0,0,60.64,68a38.41,38.41,0,0,0,5.48-4.4,20.15,20.15,0,0,0,3.16-3.54,2.67,2.67,0,0,1,.92-.91A15.27,15.27,0,0,1,67.6,63a40.61,40.61,0,0,1-4.16,4.24c-1.49,1-2.89,2.06-4.45,2.93a37.16,37.16,0,0,1-15.76,4.68A37.65,37.65,0,0,1,26.12,72a21.18,21.18,0,0,0-3.25-1.39.74.74,0,0,1,.08-.91Z"/><path class="cls-24" d="M26.32,64.4c.94,1.11,2.32,1.42,3.58,1.89a31.18,31.18,0,0,0,8.89,1.92,29.44,29.44,0,0,0,17.88-4.43A30.14,30.14,0,0,0,70.34,44.59a23.81,23.81,0,0,1,.8-4,12,12,0,0,1,.37,1.88A48.39,48.39,0,0,1,70.08,48a32.35,32.35,0,0,1-5.81,10.14,30.65,30.65,0,0,1-15,9.67A35.15,35.15,0,0,1,42.72,69a29.05,29.05,0,0,1-5.2-.11,27.73,27.73,0,0,1-8.7-2.21c-.78-.34-1.55-.67-2.29-1.07-.25-.14-.62-.19-.59-.61Z"/><path class="cls-25" d="M24.63,67.22a12,12,0,0,0,3.59,1.88,26.55,26.55,0,0,0,8.23,2.06c.34.24.77,0,1.12.19h.56a28.77,28.77,0,0,0,5.25,0H44c.34-.24.78.05,1.12-.19a23.54,23.54,0,0,0,6.26-1.38A31.46,31.46,0,0,0,61,64.59a35,35,0,0,0,8.89-10.21,38.41,38.41,0,0,0,3.69-10c.11-.1.16-.31.38-.19a29.42,29.42,0,0,1-.39,3.75c-1,1.13-1.22,2.64-1.82,4a31.42,31.42,0,0,1-5.64,8.64,36.45,36.45,0,0,1-5.65,5.16,34.86,34.86,0,0,1-13.19,5.68,34.44,34.44,0,0,1-8.83.53A32.09,32.09,0,0,1,24.83,68a2,2,0,0,1-.39-.38A.4.4,0,0,1,24.63,67.22Z"/><path class="cls-26" d="M23,73.22a26,26,0,0,1,4.15,1.64A43.24,43.24,0,0,0,35.77,77a37.31,37.31,0,0,0,6.42.35,54.81,54.81,0,0,0,6.37-.77,3.19,3.19,0,0,1,.82,0,19.2,19.2,0,0,1-4.49,1.87,3.44,3.44,0,0,1-1.37.26,45.77,45.77,0,0,1-11.26-.83,50.2,50.2,0,0,1-8.87-3,.73.73,0,0,1-.36-.29,3.94,3.94,0,0,1-.21-1A.49.49,0,0,1,23,73.22Z"/><path class="cls-27" d="M29.88,57.27a37.39,37.39,0,0,1-6.05-13,32.05,32.05,0,0,1-.71-3.64c-.05-.37,0-.84-.55-1l.36-.56c.11-.55.56-.82.94-1.13.67,0,.58.54.64.93A40.14,40.14,0,0,0,27,48.49a33.14,33.14,0,0,0,3.43,6.44c.29.4.77.8.41,1.42A2.67,2.67,0,0,1,29.88,57.27Z"/><path class="cls-28" d="M23,70.6a.89.89,0,0,1,1,.05A33.7,33.7,0,0,0,35.1,74.26,36.88,36.88,0,0,0,43,74.6a39.51,39.51,0,0,0,10-2,35.42,35.42,0,0,0,9.3-4.86c.35-.24.66-.59,1.16-.53a22.62,22.62,0,0,1-4.11,3.38,35.4,35.4,0,0,1-13.69,4.72,36.56,36.56,0,0,1-19.22-2.57A33.67,33.67,0,0,1,23,71.14a.42.42,0,0,1-.18-.25A.38.38,0,0,1,23,70.6Z"/><path class="cls-19" d="M26.13,35.16,26.88,34l.38-.38c.77-.14.59.48.61.83.05,1.18.06,2.36.18,3.54a31.38,31.38,0,0,0,5.32,14.8c.23.32.55.61.45,1.08l-.94.74a1.93,1.93,0,0,1-1.08-1A34.08,34.08,0,0,1,26.25,37.2,6.66,6.66,0,0,1,26.13,35.16Z"/><path class="cls-29" d="M56.13,7.41c.34-.39.64-.06.91.09A35.73,35.73,0,0,1,67.2,15.73a35,35,0,0,1,7.27,14.34c.07.3,0,.63.41.78-.09,1.18.21,2.39-.18,3.56-.55,0-.56-.39-.61-.75a33,33,0,0,0-7.78-17.44,30.14,30.14,0,0,0-9.25-7.49A2.28,2.28,0,0,1,56.13,7.41Z"/><path class="cls-30" d="M2.13,76.6A1.24,1.24,0,0,1,2.69,76,9.28,9.28,0,0,1,5,77.37a42.82,42.82,0,0,0,17.55,6.1,33.92,33.92,0,0,0,8.12.22,3,3,0,0,1,2.18.22c-.24.48-.75.64-1.13.94-1.94,0-3.88.07-5.81,0A44.62,44.62,0,0,1,2.8,77.22,1.67,1.67,0,0,1,2.13,76.6Z"/><path class="cls-31" d="M25.38,65.91a30,30,0,0,0,8.85,3.36,26.2,26.2,0,0,0,6.83.74,32.52,32.52,0,0,0,15.38-4.23,30.28,30.28,0,0,0,6.72-5,32.35,32.35,0,0,0,8.53-15.09c.07-.27.13-.54.2-.81h.36a4.54,4.54,0,0,1-.5,2.69A32.37,32.37,0,0,1,65,59.6a32,32,0,0,1-16.14,9.88,32.07,32.07,0,0,1-23-2.66c-.23-.13-.65-.1-.64-.54A.4.4,0,0,1,25.38,65.91Z"/><path class="cls-32" d="M23,71c.71,0,1.22.46,1.78.74a36.81,36.81,0,0,0,11,3.35,35.67,35.67,0,0,0,14.92-1A37.3,37.3,0,0,0,58.27,71a6,6,0,0,1,1.06-.35,20.25,20.25,0,0,1-3.95,2.81c-.39-.2-.72,0-1.07.15a37.31,37.31,0,0,1-9.12,2.23,39.86,39.86,0,0,1-7.25.12,39,39,0,0,1-10.43-2.28c-1.55-.58-3-1.27-4.56-1.91A.51.51,0,0,1,23,71Z"/><path class="cls-33" d="M26.13,35.16a5.13,5.13,0,0,1,.36,2,34.08,34.08,0,0,0,2.21,9.95,41.23,41.23,0,0,0,3.07,6.08,16,16,0,0,0,1.11,1.49l-1.12.94A32.2,32.2,0,0,1,27,46.54a39.86,39.86,0,0,1-2-10.07A3.85,3.85,0,0,1,26.13,35.16Z"/><path class="cls-24" d="M25.94,65a27.13,27.13,0,0,0,8.23,3.17,27.13,27.13,0,0,0,6.83.73,31.21,31.21,0,0,0,11.34-2.28A30.92,30.92,0,0,0,71.12,43.25c0-.31,0-.63.39-.78.06.38.13.75.19,1.12a9.41,9.41,0,0,0-.92,2.91,31.73,31.73,0,0,1-6.24,11.69,31.25,31.25,0,0,1-10.41,8.06,30.44,30.44,0,0,1-9.32,2.69,31,31,0,0,1-17.76-2.86c-.45-.21-.87-.49-1.3-.74A.4.4,0,0,1,25.94,65Z"/><path class="cls-17" d="M25,36.47c.4.18.37.53.39.88a33.2,33.2,0,0,0,1.26,7.32,36.57,36.57,0,0,0,3.77,8.62c.44.77,1.17,1.37,1.34,2.3l-.94.76c-.16-1.15-1.09-1.85-1.62-2.78A36.85,36.85,0,0,1,24.82,42a24.25,24.25,0,0,1-.56-3.48.62.62,0,0,0-.39-.59A5.38,5.38,0,0,1,25,36.47Z"/><path class="cls-34" d="M40.76,80a16.21,16.21,0,0,1-3,1.13,33.82,33.82,0,0,1-7.08-1,30.62,30.62,0,0,1-4.2-1.23,2.83,2.83,0,0,0-1.18-.24c-.4,0-.62-.29-.86-.54-.3-.54-1-1-.56-1.74.43-.33.84-.1,1.23.06a41.72,41.72,0,0,0,10.18,2.71,27.83,27.83,0,0,0,4.09.29C39.89,79.35,40.54,79.23,40.76,80Z"/><path class="cls-2" d="M25.2,78.47c.29-.3.62-.2.94-.08a40,40,0,0,0,10.11,2.36,3,3,0,0,1,1.51.35l-2.63,1.5c-1-.46-2-.07-3-.33-.67-.17-1.38-.28-2.07-.42-.46.27-.83,0-1.2-.23s-.94-.47-1.4-.73-.81-.63-1.22-.94a6.9,6.9,0,0,1-.6-.47C25.44,79.17,25.1,78.92,25.2,78.47Z"/><path class="cls-35" d="M33.82,53.91A31.63,31.63,0,0,1,27.87,39a23.14,23.14,0,0,1-.25-4.56c0-.3.16-.72-.36-.82a4.3,4.3,0,0,1,1.12-1.13c.36.15.35.46.34.78a33.36,33.36,0,0,0,2.06,12.4,28.76,28.76,0,0,0,3.52,6.81c.21.29.5.59.27,1C34.24,53.51,34.08,53.81,33.82,53.91Z"/><path class="cls-34" d="M32.89,83.91c-1.53-.13-3,.2-4.56.19A45.31,45.31,0,0,1,9.74,80.15a50.5,50.5,0,0,1-6.66-3.74A2.78,2.78,0,0,1,2.69,76l.38-.37A41.49,41.49,0,0,0,18.23,82.4a44.6,44.6,0,0,0,7.83,1,51.56,51.56,0,0,0,6.58-.22,1.8,1.8,0,0,1,1.18.18Z"/><path class="cls-25" d="M57.06,8.73a1.62,1.62,0,0,1,1,.2A34.22,34.22,0,0,1,74.3,33.16c.07.43-.17,1,.4,1.25a13.22,13.22,0,0,1-.19,3.38c-.37.11-.21-.3-.38-.38V36.1c-.25-.48.07-1-.18-1.5V34c-.23-.29,0-.66-.19-.94a33.11,33.11,0,0,0-6.68-15.52A34.22,34.22,0,0,0,58.77,10a1.49,1.49,0,0,0-1-.31A1.81,1.81,0,0,1,57.06,8.73Z"/><path class="cls-16" d="M69.25,23a5.29,5.29,0,0,1,1.55,2.59,33,33,0,0,1,2.45,10.15c.13,1.66-.25,3.27-.06,4.9a1,1,0,0,1-.37.92A79.61,79.61,0,0,0,71.67,33c-.49-2.77-1.13-5.52-1.82-8.25C69.69,24.12,69.22,23.63,69.25,23Z"/><path class="cls-36" d="M34.57,53.53c-.88-1.56-1.94-3-2.71-4.65A31.69,31.69,0,0,1,28.74,38c-.15-1.69-.59-3.36-.21-5.07,0-.13-.1-.29-.15-.43a.93.93,0,0,1,.56-.75c.84-.05.6.6.6,1,0,1.3-.06,2.61,0,3.91a29.43,29.43,0,0,0,4.75,14.46c.36.54.92,1,.8,1.82Z"/><path class="cls-28" d="M35.13,53c-1-1.81-2.21-3.52-3.09-5.42a30.89,30.89,0,0,1-2.56-9.27,37.32,37.32,0,0,1-.17-5.69c0-.31.16-.73-.37-.82.38-.43.75-.87,1.13-1.31a3.07,3.07,0,0,1,.24,2.08,31.55,31.55,0,0,0,.88,9.78,2.24,2.24,0,0,1,.2,1.28c0,.06,0,.12,0,.18a8.43,8.43,0,0,1,.82,1.68,27.14,27.14,0,0,0,3.3,6.23c.18.27.5.49.38.9C35.62,52.7,35.46,53,35.13,53Z"/><path class="cls-16" d="M25.19,66.28a25.86,25.86,0,0,0,7.75,3.15,30.84,30.84,0,0,0,8.77,1,33,33,0,0,0,15.51-4.53A30.77,30.77,0,0,0,64,60.59a32.46,32.46,0,0,0,8.28-15.13,2.6,2.6,0,0,0,0-.56c0-.06,0-.12,0-.18.56.33.21.83.12,1.17a33.55,33.55,0,0,1-6.2,12.53A32.57,32.57,0,0,1,29.36,68.56c-1.48-.56-2.91-1.27-4.36-1.9A.4.4,0,0,1,25.19,66.28Z"/><path class="cls-26" d="M32.51,43.79l1.5-.38a24.24,24.24,0,0,0,4,7.49.91.91,0,0,1,.28.57l-1.5.75A10.94,10.94,0,0,1,35,49.72,26.77,26.77,0,0,1,32.73,45C32.58,44.64,32.33,44.25,32.51,43.79Z"/><path class="cls-37" d="M44.69,12.66c-1.26.37-1.93,1.5-2.88,2.28a20.88,20.88,0,0,0-3,3c-.21.25-.42.55-.82.55l1.12-3a27.23,27.23,0,0,0,3.61-3.9c.41-.57.52-.91-.24-1.16a2.83,2.83,0,0,1,3,.75C46,12.07,44.87,12.12,44.69,12.66Z"/><path class="cls-28" d="M60.82,7.79c-1.2-.15-2.07-1-3.07-1.51S56,5.43,55.13,5a.26.26,0,0,0-.31.12c-.48-.57-.93-1.15-1.43-1.7s0-.57.23-.73A2.27,2.27,0,0,1,56.44,3C58,4.48,59.4,6.14,60.82,7.79Z"/><path class="cls-38" d="M57.26,12.85a5.79,5.79,0,0,1-.85-.34,33.66,33.66,0,0,0-8.71-3.6V8c.12-.3.25-.58.66-.48A21.06,21.06,0,0,1,55,10,15.26,15.26,0,0,1,57.26,12.85Z"/><path class="cls-21" d="M23.32,74.72a17.22,17.22,0,0,1,2.95,1.12,43.22,43.22,0,0,0,10.39,2.47c2.75.29,5.49.07,8.22.16a4.76,4.76,0,0,1-1.87.75,32.59,32.59,0,0,1-5.41,0,34.74,34.74,0,0,1-5.36-.75,52.44,52.44,0,0,1-8.71-2.84.61.61,0,0,1-.37-.5A.54.54,0,0,1,23.32,74.72Z"/><path class="cls-36" d="M74.88,29c.33-1.89-.52-3.48-1.23-5.12A39.7,39.7,0,0,0,69.76,17a1.45,1.45,0,0,1-.31-.77c2.5,1.92,4.77,4,5.33,7.34A13.19,13.19,0,0,1,74.88,29Z"/><path class="cls-21" d="M23.51,75.47c1.69.6,3.38,1.24,5.09,1.79a37.83,37.83,0,0,0,7.9,1.62C37.75,79,39,79,40.22,79a12.4,12.4,0,0,1,2.79.19,6.43,6.43,0,0,1-2.25.75,2.11,2.11,0,0,0-1.4-.37,38.93,38.93,0,0,1-14.33-3c-.37-.15-.72-.4-1.15-.2a.19.19,0,0,1-.26,0C23.38,76.12,23.23,75.82,23.51,75.47Z"/><path class="cls-39" d="M32.51,43.79a31.56,31.56,0,0,0,4,7.85,1,1,0,0,1,.27.58l-.94.38a26.69,26.69,0,0,1-4.12-7.69c-.13-.37-.56-.65-.38-1.12C31.75,44.2,32.13,43.65,32.51,43.79Z"/><path class="cls-16" d="M59.69,11.91c1,0,1.46.78,2.08,1.29A30.11,30.11,0,0,1,69,21.86c.14.26.42.57.12.92a24.75,24.75,0,0,0-2.94-4.05c-.51-.55-1-1-1.59-1.55A44,44,0,0,1,59.69,11.91Z"/><path class="cls-40" d="M55,10a52,52,0,0,0-6.17-2.2c-.37-.08-.82-.38-1.15.14a3.75,3.75,0,0,1,.55-1.69A.73.73,0,0,1,49,6.17a23.1,23.1,0,0,1,4.56,1.61A13.55,13.55,0,0,1,55,10Z"/><path class="cls-25" d="M53.52,7.78A11.46,11.46,0,0,1,50.77,7a18,18,0,0,0-2.52-.68,2.47,2.47,0,0,1,1.9-1.84c1-.26,1.64.45,2.14,1.17A7.29,7.29,0,0,1,53.52,7.78Z"/><path class="cls-14" d="M67.57,25.22c-1-1-1.39-2.36-2.06-3.56A7.77,7.77,0,0,1,67.57,25.22Z"/><path class="cls-22" d="M74,44.16l-.38.19c.27-.73.11-1.57.56-2.25q.08.06.06.12c0,.05,0,.07-.06.07V43c-.22.28,0,.65-.18.94Z"/><path class="cls-22" d="M74.32,41c-.39-.72-.09-1.5-.19-2.25.56.3.21.74.19,1.13Z"/><path class="cls-25" d="M74.32,39.85c-.06-.37.15-.8-.19-1.13v-.18c.11-.1.16-.31.37-.19C74.43,38.85,74.69,39.39,74.32,39.85Z"/><path class="cls-22" d="M74.5,38.35l-.37.19V37.41l.38.38Z"/><path class="cls-41" d="M50.88,48.28c.21-.21.45-.39.38-.74C51.62,48,51.48,48.27,50.88,48.28Z"/><path class="cls-25" d="M74.13,42.29V42.1c0-.26-.08-.55.18-.75C74.28,41.67,74.44,42,74.13,42.29Z"/><path class="cls-25" d="M74,44c0-.32-.13-.68.18-.94C74.09,43.36,74.25,43.71,74,44Z"/><path class="cls-26" d="M27.45,80.72c1,.18,1.64,1,2.62,1.13-.18.39-.53.37-.88.38a42.08,42.08,0,0,1-18.33-3.59,48.09,48.09,0,0,1-6.38-3.49c-.19-.12-.39-.21-.47-.43A5.33,5.33,0,0,1,5,73.6a52.63,52.63,0,0,0,5.26,3A41.5,41.5,0,0,0,24.1,80.51C25.22,80.62,26.34,80.56,27.45,80.72Z"/><path class="cls-23" d="M23.7,76.41h.18a2.86,2.86,0,0,0,.75,1.5c-.31.71-.95.46-1.43.41a31.2,31.2,0,0,1-5.14-.95A38.16,38.16,0,0,1,7.64,72.85c-.39-.25-1.07-.37-.82-1.13l.94-1.12A35.18,35.18,0,0,0,23.7,76.41Z"/><path class="cls-32" d="M6.82,71.72c.36.91,1.28,1.11,2,1.54a36.37,36.37,0,0,0,11.54,4.37,14.6,14.6,0,0,0,3.49.47c.27,0,.57.08.78-.19l.57.56.56.94c-.17.38-.49.32-.8.3a39.16,39.16,0,0,1-13-3.18,34.66,34.66,0,0,1-5.11-2.71c-.43-.27-1-.49-.94-1.16A3,3,0,0,1,6.82,71.72Z"/><path class="cls-15" d="M23.7,76.41a1.37,1.37,0,0,1-1.25.15A37.87,37.87,0,0,1,8.63,71.48c-.34-.2-.85-.32-.87-.88a2.88,2.88,0,0,1,.93-.94,39.76,39.76,0,0,0,5.72,3,32.24,32.24,0,0,0,8.11,2.24,1.85,1.85,0,0,1,.8.23.38.38,0,0,0,.19.37Z"/><path class="cls-31" d="M23,73.22v.38c-.22.66-.75.4-1.15.33a32.63,32.63,0,0,1-7.41-2.17,41.08,41.08,0,0,1-4.08-2.07c-.37-.22-.9-.36-.86-1l.93-1.12a5.34,5.34,0,0,1,1.65.83A30.9,30.9,0,0,0,22.35,72a1,1,0,0,1,.59.25Z"/><path class="cls-38" d="M22.94,72.29a21.7,21.7,0,0,1-7.08-1.78A35.36,35.36,0,0,1,10.78,68a2.05,2.05,0,0,1-.4-.38c.3-.39.47-.88.93-1.14,1.31.65,2.53,1.44,3.88,2a35.08,35.08,0,0,0,7.75,2.31c0,.06,0,.12,0,.18v1.32Z"/><path class="cls-18" d="M27.45,80.72a4.21,4.21,0,0,1-2.3.17A41.18,41.18,0,0,1,5.71,74.35c-.3-.2-.7-.31-.76-.75A1.17,1.17,0,0,1,5.51,73a38.12,38.12,0,0,0,18.4,6.7,6.51,6.51,0,0,0,2.41,0C26.7,80.09,27.21,80.24,27.45,80.72Z"/><path class="cls-14" d="M22.94,70.79a6.4,6.4,0,0,1-3.24-.45A30.28,30.28,0,0,1,12,67.09a1.63,1.63,0,0,1-.67-.63,2.4,2.4,0,0,1,.57-1.12c.06.45.46.58.76.75a32.59,32.59,0,0,0,9.1,3.51,8,8,0,0,0,1.21.06v1.13Z"/><path class="cls-42" d="M26.32,79.78c-.35.62-1,.41-1.43.36a45.46,45.46,0,0,1-7.5-1.31,40.15,40.15,0,0,1-11.2-5c-.32-.21-.66-.38-.68-.82a.63.63,0,0,1,.37-.38,4.66,4.66,0,0,0,1.83,1.4,38.18,38.18,0,0,0,13.75,5,16.75,16.75,0,0,0,4.3.36Z"/><path class="cls-22" d="M9.45,68.72a15.35,15.35,0,0,0,4.06,2.38,32.15,32.15,0,0,0,8.3,2.59c.39.07.78.23,1.14-.09.31.26.14.62.18.94a1.1,1.1,0,0,1-1.06.17,36.18,36.18,0,0,1-12.3-4.55c-.32-.2-.77-.35-.7-.88Z"/><path class="cls-25" d="M9.07,69.28a19.14,19.14,0,0,0,5.27,2.91A39.16,39.16,0,0,0,22.2,74.5a7.16,7.16,0,0,0,.93,0l.19.18v.38a15.86,15.86,0,0,1-5.16-.9,35.53,35.53,0,0,1-8.52-3.68,2.46,2.46,0,0,1-1-.86Z"/><path class="cls-43" d="M42.44,10.41h.65c.39,0,.55.2.3.51-1.28,1.67-2.36,3.53-4.32,4.55.37-1.15.74-2.3,1.12-3.45A2.24,2.24,0,0,1,42.44,10.41Z"/><path class="cls-44" d="M33.26,26.72c.28.26.2.57.12.87a28.17,28.17,0,0,0-.88,8.28,27.63,27.63,0,0,0,.82,5.59c.06.27.08.55.13.82-.41.13-.68.53-1.13.56a1.87,1.87,0,0,1-.64-1.3A31,31,0,0,1,31.38,29l.56-.75Z"/><path class="cls-18" d="M31.38,29c.49.86,0,1.69-.09,2.53a41.93,41.93,0,0,0,0,6.24,25.14,25.14,0,0,0,1,5.1l-.56.39a6.38,6.38,0,0,1-1-3.13A29.16,29.16,0,0,1,30.25,34c0-1.3.22-2.59.19-3.89A5.65,5.65,0,0,1,31.38,29Z"/><path class="cls-39" d="M30.44,30.1c.53.09.37.48.33.81a22.87,22.87,0,0,0-.31,4.45,37.61,37.61,0,0,0,1.3,7.87l-.37.38a21.08,21.08,0,0,1-1.32-6.51c-.17-2.21,0-4.42,0-6.63Z"/><path class="cls-1" d="M43.76,42.1c.53-.37,1.13-.11,1.69-.19C44.92,42.28,44.32,42,43.76,42.1Z"/><path class="cls-1" d="M41.69,42.28c.34-.33.76-.13,1.13-.18C42.49,42.43,42.07,42.23,41.69,42.28Z"/><path class="cls-1" d="M40,42.47c.26-.31.62-.14.94-.18C40.68,42.59,40.32,42.43,40,42.47Z"/><path class="cls-22" d="M43.38,71.35a10.25,10.25,0,0,1-3.36.17,3.07,3.07,0,0,1-1.89-.17Z"/><path class="cls-22" d="M74,34.6c.37.46.1,1,.18,1.5C73.76,35.64,74,35.1,74,34.6Z"/><path class="cls-22" d="M45.07,71.16c-.33.34-.75.13-1.12.19C44.27,71,44.7,71.22,45.07,71.16Z"/><path class="cls-22" d="M37.57,71.35c-.37-.06-.8.15-1.12-.19C36.82,71.22,37.24,71,37.57,71.35Z"/><path class="cls-22" d="M73.76,33.1c.31.26.14.62.19.94C73.63,33.77,73.8,33.41,73.76,33.1Z"/></g></g></svg>